ply
format ascii 1.0
comment VCGLIB generated
element vertex 132
property float x
property float y
property float z
property float nx
property float ny
property float nz
property float texture_u
property float texture_v
element face 268
property list uchar int vertex_indices
end_header
-0.08765554 -1.669086 0.04864359 -0.3794113 -0.7987271 -0.4669926 -0.08765554 -1.669086
-0.1111784 -1.614207 0.1566105 -0.5452881 -0.6520668 0.5267541 -0.1111784 -1.614207
-0.1690826 -1.368179 0.05853701 -0.5865332 -0.1039272 -0.8032297 -0.1690826 -1.368179
-0.1756678 -1.398685 0.2490668 -0.7376122 0.5444734 0.3993456 -0.1756678 -1.398685
-0.4086142 -0.724967 0.1778917 -0.8906267 0.02365993 -0.4541194 -0.4086142 -0.724967
-0.2126126 -1.091559 0.09255266 -0.3086875 0.005781513 -0.9511459 -0.2126126 -1.091559
-0.1931586 -1.443421 0.1545076 0.4985256 -0.6291164 0.5963933 -0.1931586 -1.443421
-0.07646608 -0.7951076 0.1171999 -0.072093 0.03223753 -0.9968768 -0.07646608 -0.7951076
-0.4196229 -0.8554659 0.1891131 -0.9511996 -0.1863183 -0.2459773 -0.4196229 -0.8554659
-0.3994193 -0.5435677 0.1725812 -0.8766408 -0.07473073 -0.4753067 -0.3994193 -0.5435677
-0.4284182 -0.2081437 0.1253834 -0.4567889 -0.2086986 -0.8647479 -0.4284182 -0.2081437
-0.4143605 -0.2781262 0.137198 -0.7471504 -0.2483161 -0.6165269 -0.4143605 -0.2781262
-0.09331656 -0.5167804 0.1111002 -0.04899457 -0.03937053 -0.9980229 -0.09331656 -0.5167804
-0.2326336 -0.5165458 0.1285977 -0.1795759 -0.05740888 -0.9820676 -0.2326336 -0.5165458
-0.1645384 -0.261353 0.1001697 -0.06526195 -0.07327639 -0.9951741 -0.1645384 -0.261353
-0.2734036 -0.3688731 0.1252198 -0.1622767 -0.09617615 -0.9820471 -0.2734036 -0.3688731
-0.2902508 -0.6851888 0.4115868 -0.7262142 -0.1651724 0.6673313 -0.2902508 -0.6851888
0.007205009 -1.050568 0.4562378 -0.02074672 -0.4440326 0.8957705 0.007205009 -1.050568
-0.1484694 -0.798646 0.5105596 -0.4110045 -0.2636442 0.8726781 -0.1484694 -0.798646
-0.3341122 -0.5226631 0.4287281 -0.7572452 -0.2347592 0.6094816 -0.3341122 -0.5226631
-0.397049 -0.251112 0.4901829 -0.7273194 -0.2436079 0.6416086 -0.397049 -0.251112
0.01656771 -0.5167642 0.5890985 -0.9718474 0.1467017 -0.1843673 0.01656771 -0.5167642
-0.0110054 -0.2282166 0.613729 -0.07887648 -0.02069873 0.9966695 -0.0110054 -0.2282166
-0.8956952 0.3947091 0.3310361 -0.8532133 -0.5215417 0.004640595 -0.8956952 0.3947091
-0.7822559 0.2893543 0.2707152 -0.4639663 -0.6901159 -0.5554057 -0.7822559 0.2893543
-0.9499428 0.5703015 0.2927694 -0.9586486 -0.2113262 -0.1906153 -0.9499428 0.5703015
-0.9938025 0.8722477 0.2948947 -0.9924247 -0.08404324 -0.08960988 -0.9938025 0.8722477
-0.7927463 0.8885722 0.08843708 0.8136246 -0.1067546 0.5715055 -0.7927463 0.8885722
-0.7614462 0.8741961 0.1003852 -0.9581904 -0.2787999 0.06435652 -0.7614462 0.8741961
-0.4798791 -0.01179266 0.1047912 -0.4152213 0.01631903 -0.909574 -0.4798791 -0.01179266
-0.5047388 0.02894068 0.1212578 -0.7256085 0.2054445 -0.656723 -0.5047388 0.02894068
-0.5504785 0.1878781 0.272984 -0.6895466 -0.3336079 -0.6428307 -0.5504785 0.1878781
-0.1396875 -0.02354527 0.08214951 -0.02671904 0.2515657 -0.9674714 -0.1396875 -0.02354527
-0.1394696 0.1140909 0.1768866 -0.03538981 0.5122193 -0.8581253 -0.1394696 0.1140909
-0.136498 0.2880478 0.2596769 -0.03333782 0.1456054 -0.9887809 -0.136498 0.2880478
-0.6516089 0.9421363 0.2463918 -0.6572044 -0.5402984 -0.5255094 -0.6516089 0.9421363
-0.6419952 0.8971214 0.2478337 -0.5974115 -0.5827196 -0.5509423 -0.6419952 0.8971214
-0.1475363 0.5591326 0.229558 -0.3767331 0.3131118 -0.8717988 -0.1475363 0.5591326
-0.03793573 0.8856659 0.1985645 -0.2537222 -0.1475153 -0.9559625 -0.03793573 0.8856659
-0.9993844 1.209614 0.2867365 -0.8217132 0.562055 -0.09424294 -0.9993844 1.209614
-0.7623718 1.220907 0.08882856 0.02380486 0.5671573 -0.8232655 -0.7623718 1.220907
-0.5242615 1.238364 0.303256 0.04626472 0.8389076 -0.5423041 -0.5242615 1.238364
-0.1163931 1.188096 0.2326374 -0.1929671 0.2706894 -0.9431283 -0.1163931 1.188096
-0.195693 1.303393 0.2510018 -0.8062583 0.4100924 -0.4263472 -0.195693 1.303393
-0.8490858 0.4127779 0.4173527 -0.772858 -0.3874227 0.5025874 -0.8490858 0.4127779
-0.6909163 0.3105454 0.5815697 -0.2592172 -0.5850245 0.7684743 -0.6909163 0.3105454
-0.8671465 0.5312142 0.4197183 -0.8087312 -0.09693818 0.5801352 -0.8671465 0.5312142
-0.8321085 0.8765807 0.4943137 -0.786942 -0.05492031 0.6145779 -0.8321085 0.8765807
-0.6659 0.5435805 0.6554737 -0.06959211 -0.1258554 0.9896047 -0.6659 0.5435805
-0.7394269 0.8712769 0.6171832 -0.291084 0.0904097 0.952416 -0.7394269 0.8712769
-0.4888065 0.09917974 0.5055432 -0.7305897 -0.03699127 0.681814 -0.4888065 0.09917974
-0.4561605 0.2469487 0.4809127 -0.3343241 -0.1321576 0.9331462 -0.4561605 0.2469487
-0.1920862 0.09757137 0.5600019 -0.3208694 -0.1914519 0.9275716 -0.1920862 0.09757137
-0.05453157 0.1327524 0.7548261 -0.3311443 -0.5120491 0.7925587 -0.05453157 0.1327524
-0.3232884 0.2510958 0.5204 -0.3733802 -0.01811158 0.9275016 -0.3232884 0.2510958
-0.04894686 0.3268781 0.7395205 -0.3117076 0.2169946 0.9250685 -0.04894686 0.3268781
-0.4745436 0.4290261 0.4797068 0.3742282 0.2064699 0.9040595 -0.4745436 0.4290261
-0.4233379 0.8783197 0.4925804 0.3921416 -0.5733228 0.7193928 -0.4233379 0.8783197
-0.127727 0.4154501 0.633523 -0.5392399 0.4286508 0.7248993 -0.127727 0.4154501
-0.0007281303 0.4593954 0.6820083 -0.1097136 0.9458402 0.3055311 -0.0007281303 0.4593954
-0.07987833 0.8808832 0.6300497 -0.3709927 -0.1255264 0.9201128 -0.07987833 0.8808832
-0.8375907 1.208559 0.4993038 -0.4333599 0.6578478 0.6159834 -0.8375907 1.208559
-0.6734035 1.212513 0.5147829 -0.03390149 0.7317124 0.6807699 -0.6734035 1.212513
-0.4196644 1.268168 0.5217948 -0.03991355 0.7801226 0.6243522 -0.4196644 1.268168
-0.09540415 1.165983 0.5900807 -0.2189388 0.3584864 0.9074984 -0.09540415 1.165983
-0.1176763 1.281737 0.5413342 -0.6343728 0.5813483 0.5095148 -0.1176763 1.281737
0.09407759 -1.645172 0.05050039 0.4809006 -0.7306686 -0.4846215 0.09407759 -1.645172
0.1194715 -1.583505 0.1596227 0.6121967 -0.5929536 0.5230882 0.1194715 -1.583505
0.169735 -1.368609 0.06802368 0.6266062 -0.1183104 -0.7703034 0.169735 -1.368609
0.176158 -1.392422 0.2367058 0.6020274 0.3366015 0.7240598 0.176158 -1.392422
0.2169538 -1.093798 0.1052976 0.3381766 -0.01559114 -0.9409535 0.2169538 -1.093798
0.2069569 -1.36433 0.1682849 0.7917322 -0.5627514 0.2376364 0.2069569 -1.36433
0.07617569 -0.7951789 0.1204171 0.09134165 0.02437978 -0.9955211 0.07617569 -0.7951789
0.4196167 -0.8554652 0.1891141 0.9452742 -0.197465 -0.2597392 0.4196167 -0.8554652
0.4086099 -0.7249568 0.1778903 0.8906222 0.02365143 -0.4541285 0.4086099 -0.7249568
0.09330082 -0.5165682 0.1158462 0.05822875 -0.03722187 -0.9976091 0.09330082 -0.5165682
0.2326303 -0.5165458 0.1285987 0.1626403 -0.05449317 -0.9851795 0.2326303 -0.5165458
0.1643982 -0.2610068 0.1048269 0.06617146 -0.07257886 -0.9951652 0.1643982 -0.2610068
0.2734003 -0.3688688 0.1252203 0.1467537 -0.08591905 -0.9854346 0.2734003 -0.3688688
0.3994112 -0.5435667 0.1725807 0.8766402 -0.07472097 -0.4753092 0.3994112 -0.5435667
0.4284139 -0.2081389 0.1253843 0.4505615 -0.2094464 -0.8678287 0.4284139 -0.2081389
0.4143543 -0.2781234 0.1371984 0.7433074 -0.2453473 -0.6223334 0.4143543 -0.2781234
0.011168 -1.072124 0.4406962 0.2724738 -0.5372962 0.7981672 0.011168 -1.072124
0.1676874 -0.79774 0.4964619 0.4521176 -0.2532874 0.8552399 0.1676874 -0.79774
0.2902465 -0.685179 0.4115858 0.7276356 -0.1574647 0.6676462 0.2902465 -0.685179
-0.02085543 -0.5149031 0.5920053 0.9669357 0.05057919 -0.2499542 -0.02085543 -0.5149031
0.1430001 -0.2398238 0.5884171 0.2788723 -0.06775863 0.9579347 0.1430001 -0.2398238
0.3341036 -0.5226622 0.4287281 0.7635354 -0.2453953 0.5973232 0.3341036 -0.5226622
0.3970413 -0.251111 0.4901829 0.7442952 -0.2321933 0.6261877 0.3970413 -0.251111
0.1401391 -0.02378178 0.08497953 0.03265043 0.2495321 -0.967816 0.1401391 -0.02378178
0.1396155 0.1126361 0.1786079 0.03969582 0.50736 -0.8608194 0.1396155 0.1126361
0.1359067 0.2866254 0.2581878 0.03602794 0.1515148 -0.9877983 0.1359067 0.2866254
0.4798698 -0.01179361 0.1047912 0.4118408 0.01732435 -0.9110911 0.4798698 -0.01179361
0.5047302 0.02893972 0.1212568 0.7240068 0.2073273 -0.6578978 0.5047302 0.02893972
0.5504732 0.1878762 0.2729812 0.6880156 -0.3331659 -0.6446977 0.5504732 0.1878762
0.1521101 0.6006188 0.2311873 0.4124047 0.3343202 -0.8474387 0.1521101 0.6006188
0.03874207 0.8858809 0.2010064 0.2831377 -0.1285109 -0.9504305 0.03874207 0.8858809
0.6515989 0.9421334 0.2463937 0.4869404 -0.8038477 -0.34164 0.6515989 0.9421334
0.6419835 0.8971224 0.2478361 0.6411775 -0.7113165 -0.2879587 0.6419835 0.8971224
0.7822533 0.2893538 0.2707081 0.4639792 -0.6901048 -0.5554085 0.7822533 0.2893538
0.8956938 0.3947201 0.3310285 0.8532296 -0.5215152 0.004624831 0.8956938 0.3947201
0.7927356 0.8885798 0.08843851 -0.3995823 0.6439222 -0.6524555 0.7927356 0.8885798
0.7614379 0.8741965 0.1003852 0.9014227 -0.3825775 -0.2026611 0.7614379 0.8741965
0.9499335 0.5702996 0.2927704 0.9572344 -0.2222681 -0.1852007 0.9499335 0.5702996
0.993794 0.8722482 0.2948952 0.9957088 -0.06424662 -0.06660682 0.993794 0.8722482
0.104485 1.17121 0.2378731 0.2122858 0.2740325 -0.9379984 0.104485 1.17121
0.1940989 1.301091 0.2659307 0.8268813 0.4079044 -0.3871451 0.1940989 1.301091
0.5242538 1.238364 0.3032556 -0.06413925 0.836193 -0.5446719 0.5242538 1.238364
0.7623639 1.220907 0.08882809 -0.02380345 0.5671546 -0.8232673 0.7623639 1.220907
0.9993758 1.209615 0.2867365 0.8217117 0.5620573 -0.09424186 0.9993758 1.209615
0.2300863 0.1008506 0.5447369 0.3201164 -0.1462893 0.9360155 0.2300863 0.1008506
0.0643549 0.1327524 0.7424016 0.3674896 -0.5374812 0.7589898 0.0643549 0.1327524
0.32233 0.2521381 0.5187087 0.3764591 -0.0009077188 0.9264328 0.32233 0.2521381
0.06544876 0.3218265 0.7268119 0.4032266 0.1908909 0.8949687 0.06544876 0.3218265
0.4887977 0.09917974 0.5055432 0.722263 -0.03929215 0.6905016 0.4887977 0.09917974
0.4561548 0.2469482 0.4809103 0.3272133 -0.1319498 0.9356927 0.4561548 0.2469482
0.1841278 0.4647841 0.5880952 0.5528906 0.4045656 0.7284496 0.1841278 0.4647841
0.0007400513 0.4593325 0.6818314 0.07406709 0.9024946 0.4242847 0.0007400513 0.4593325
0.07761049 0.8797398 0.6165876 0.4336565 -0.1116958 0.8941287 0.07761049 0.8797398
0.4745212 0.4290357 0.4797254 -0.3421055 0.187178 0.9208302 0.4745212 0.4290357
0.4233198 0.8783221 0.4925904 -0.3929782 -0.5766937 0.716235 0.4233198 0.8783221
0.6909122 0.3105445 0.581563 0.2592527 -0.5850326 0.7684562 0.6909122 0.3105445
0.8490825 0.4127893 0.4173489 0.7728674 -0.3874005 0.5025901 0.8490825 0.4127893
0.6658964 0.5435772 0.6554685 0.06963383 -0.1258776 0.9895989 0.6658964 0.5435772
0.7394948 0.8712721 0.617219 0.2913931 0.09030025 0.9523318 0.7394948 0.8712721
0.8671417 0.5312147 0.4197135 0.8087337 -0.09693612 0.5801321 0.8671417 0.5312147
0.8321004 0.8765798 0.4943128 0.7870746 -0.05497553 0.6144031 0.8321004 0.8765798
0.08142471 1.152496 0.5898838 0.2309929 0.3226996 0.917882 0.08142471 1.152496
0.1186495 1.282094 0.5376391 0.6632904 0.5470991 0.5106159 0.1186495 1.282094
0.4196568 1.268169 0.5217938 0.02154144 0.7850321 0.6190804 0.4196568 1.268169
0.673408 1.212515 0.5147629 0.03387364 0.73177 0.6807093 0.673408 1.212515
0.8375816 1.20856 0.4993038 0.4333492 0.6578717 0.6159654 0.8375816 1.20856
3 1 2 0 
3 5 8 7 
3 12 15 14 
3 14 11 10 
3 9 15 13 
3 7 13 12 
3 4 13 8 
3 2 6 5 
3 22 19 21 
3 21 16 18 
3 25 28 27 
3 33 29 30 
3 31 33 30 
3 28 35 27 
3 25 24 23 
3 31 37 34 
3 24 35 31 
3 39 28 26 
3 36 42 38 
3 40 36 28 
3 48 47 46 
3 52 55 54 
3 54 50 52 
3 57 48 56 
3 48 44 45 
3 55 58 54 
3 54 56 51 
3 56 45 51 
3 49 61 47 
3 64 57 60 
3 57 62 49 
3 68 67 66 
3 73 70 72 
3 78 75 77 
3 77 81 78 
3 78 79 76 
3 76 72 75 
3 76 74 73 
3 71 68 70 
3 87 86 85 
3 84 85 83 
3 90 92 89 
3 90 94 93 
3 101 104 103 
3 97 102 101 
3 95 94 91 
3 99 103 100 
3 97 99 94 
3 105 98 96 
3 102 109 104 
3 98 108 102 
3 113 110 112 
3 114 112 110 
3 126 123 125 
3 123 120 119 
3 116 113 112 
3 119 112 115 
3 122 123 121 
3 121 119 115 
3 120 127 118 
3 131 124 126 
3 130 120 124 
3 66 1 0 
3 2 66 0 
3 67 3 1 
3 5 72 70 
3 12 77 75 
3 12 72 7 
3 5 68 2 
3 69 6 3 
3 83 17 82 
3 85 22 21 
3 83 21 18 
3 33 89 32 
3 33 91 90 
3 38 95 37 
3 37 91 34 
3 42 106 105 
3 38 105 96 
3 52 111 53 
3 111 55 53 
3 117 58 59 
3 118 58 116 
3 117 55 113 
3 127 65 64 
3 127 60 118 
3 10 30 29 
3 10 32 14 
3 93 80 92 
3 89 80 77 
3 52 20 22 
3 88 110 86 
3 17 8 6 
3 8 16 4 
3 19 11 9 
3 16 9 4 
3 24 44 23 
3 25 47 26 
3 50 31 30 
3 36 56 35 
3 37 60 38 
3 56 37 35 
3 38 57 36 
3 23 46 25 
3 31 45 24 
3 61 40 39 
3 42 65 43 
3 63 42 41 
3 62 41 40 
3 26 61 39 
3 73 82 71 
3 73 84 83 
3 81 87 79 
3 79 84 74 
3 94 114 93 
3 118 95 96 
3 97 120 98 
3 119 95 116 
3 96 120 118 
3 99 122 121 
3 126 103 104 
3 125 100 103 
3 94 121 115 
3 128 105 106 
3 129 105 127 
3 131 108 130 
3 130 107 129 
3 131 104 109 
3 20 30 11 
3 93 88 81 
3 6 82 17 
3 65 106 43 
3 32 77 14 
3 110 22 86 
3 1 3 2 
3 5 6 8 
3 12 13 15 
3 14 15 11 
3 9 11 15 
3 7 8 13 
3 4 9 13 
3 2 3 6 
3 22 20 19 
3 21 19 16 
3 25 26 28 
3 33 32 29 
3 31 34 33 
3 28 36 35 
3 25 27 24 
3 31 35 37 
3 24 27 35 
3 39 40 28 
3 36 41 42 
3 40 41 36 
3 48 49 47 
3 52 53 55 
3 54 51 50 
3 57 49 48 
3 48 46 44 
3 55 59 58 
3 54 58 56 
3 56 48 45 
3 49 62 61 
3 64 63 57 
3 57 63 62 
3 68 69 67 
3 73 71 70 
3 78 76 75 
3 77 80 81 
3 78 81 79 
3 76 73 72 
3 76 79 74 
3 71 69 68 
3 87 88 86 
3 84 87 85 
3 90 93 92 
3 90 91 94 
3 101 102 104 
3 97 98 102 
3 95 97 94 
3 99 101 103 
3 97 101 99 
3 105 107 98 
3 102 108 109 
3 98 107 108 
3 113 111 110 
3 114 115 112 
3 126 124 123 
3 123 124 120 
3 116 117 113 
3 119 116 112 
3 122 125 123 
3 121 123 119 
3 120 129 127 
3 131 130 124 
3 130 129 120 
3 66 67 1 
3 2 68 66 
3 67 69 3 
3 5 7 72 
3 12 14 77 
3 12 75 72 
3 5 70 68 
3 69 71 6 
3 83 18 17 
3 85 86 22 
3 83 85 21 
3 33 90 89 
3 33 34 91 
3 38 96 95 
3 37 95 91 
3 42 43 106 
3 38 42 105 
3 52 110 111 
3 111 113 55 
3 117 116 58 
3 118 60 58 
3 117 59 55 
3 127 128 65 
3 127 64 60 
3 10 11 30 
3 10 29 32 
3 93 81 80 
3 89 92 80 
3 52 50 20 
3 88 114 110 
3 17 18 8 
3 8 18 16 
3 19 20 11 
3 16 19 9 
3 24 45 44 
3 25 46 47 
3 50 51 31 
3 36 57 56 
3 37 58 60 
3 56 58 37 
3 38 60 57 
3 23 44 46 
3 31 51 45 
3 61 62 40 
3 42 64 65 
3 63 64 42 
3 62 63 41 
3 26 47 61 
3 73 83 82 
3 73 74 84 
3 81 88 87 
3 79 87 84 
3 94 115 114 
3 118 116 95 
3 97 119 120 
3 119 97 95 
3 96 98 120 
3 99 100 122 
3 126 125 103 
3 125 122 100 
3 94 99 121 
3 128 127 105 
3 129 107 105 
3 131 109 108 
3 130 108 107 
3 131 126 104 
3 20 50 30 
3 93 114 88 
3 6 71 82 
3 65 128 106 
3 32 89 77 
3 110 52 22 
