ply
format ascii 1.0
comment Created in Blender version 4.3.0
element vertex 34
property float x
property float y
property float z
property float nx
property float ny
property float nz
property float s
property float t
element face 52
property list uchar uint vertex_indices
end_header
-0.19255024 -1.180285 -0.1223395 -0.4678866 0.3199152 -0.8238547 0.88558465 0.22380875
0.11643549 -1.2860059 -0.16317017 0.27552867 0.060475487 -0.95938873 0.5097661 0.119246535
-0.11582084 -1.2896159 -0.15903814 -0.25299358 -0.04807753 -0.96627265 0.8788798 0.09087995
0.0015174748 -0.90150946 0.27190843 0.031455223 0.9921782 0.12080203 0.75195396 0.5436252
0.32336235 -1.0594258 0.13864887 0.78215176 0.6042026 -0.152243 0.5982867 0.44264096
0.08616446 -0.9754348 -0.0064563304 0.23780833 0.7780184 -0.5814933 0.7022849 0.31079078
-0.10299113 -0.9661213 0.031125605 -0.29842776 0.84028447 -0.45261788 0.795836 0.34347227
-0.18604018 -0.97970927 0.38539624 -0.4535542 0.7890925 0.41427243 0.83583266 0.6358067
0.29289308 -1.2140778 -0.026901886 0.73848695 0.1986691 -0.6443351 0.54604554 0.28254843
0.05350253 -1.2829748 0.6107913 0.13284428 0.050054893 0.9898722 0.49726164 0.9292752
0.23019448 -1.3385867 0.54158515 0.5828263 -0.09889213 0.8065568 0.47117186 0.79705644
0.17687017 -1.0263392 0.46676406 0.43366197 0.6739765 0.5980744 0.66075945 0.7108704
0.34796652 -1.2977114 0.41781628 0.8850843 0.020999676 0.46495682 0.49873093 0.65048444
0.3968103 -1.3555288 0.19163863 0.98313046 -0.16581936 -0.07719126 0.4744113 0.47490522
0.21415466 -1.4960787 -0.059660748 0.52207875 -0.47359186 -0.70932686 0.38268638 0.25907367
0.20612608 -1.6180642 0.37340683 0.5233482 -0.77043194 0.3640622 0.3426133 0.6167165
0.2228098 -1.6103054 0.0894748 0.5448529 -0.78183895 -0.30308944 0.34575218 0.4058601
0.07091263 -1.4928902 0.5557306 0.16426401 -0.49370706 0.85397357 0.30384347 0.8235158
-0.03377242 -1.6905229 0.16685995 -0.06810375 -0.9859466 -0.15254897 0.23807001 0.45346814
-0.09981836 -1.5416249 -0.08442654 -0.23233408 -0.6160884 -0.7526326 0.18675148 0.233268
-0.09431126 -1.6308258 0.42119694 -0.22591616 -0.8557134 0.46552828 0.2038463 0.66696995
-0.11582084 -1.2896159 -0.15903814 -0.25299358 -0.04807753 -0.96627265 0.04994415 0.101275176
-0.25394267 -1.602181 0.18017685 -0.64399093 -0.75941616 -0.09253562 0.13950801 0.46940196
-0.20315255 -1.4941775 0.51516974 -0.5139682 -0.45444825 0.7275393 0.10974713 0.76158845
-0.33974123 -1.3987178 0.028957888 -0.8505467 -0.23445599 -0.4707448 0.05240754 0.34682557
-0.38139415 -1.3819579 0.31983283 -0.9548473 -0.19133964 0.22727945 0.0352901 0.57013345
-0.090027645 -1.2049437 0.5971329 -0.22840977 0.26636428 0.9364182 0.03115447 0.91161823
-0.2896774 -1.1956904 0.4739009 -0.74553156 0.2595815 0.61384046 0 0.7844074
-0.38139415 -1.3819579 0.31983283 -0.9548473 -0.19133964 0.22727945 0.9962895 0.58492804
-0.33115506 -1.0788841 0.13978073 -0.8303406 0.5291248 -0.17481835 0.9077465 0.43455023
-0.33974123 -1.3987178 0.028957888 -0.8505467 -0.23445599 -0.4707448 0.9921708 0.39933267
-0.2896774 -1.1956904 0.4739009 -0.74553156 0.2595815 0.61384046 0.9420531 0.7181599
-0.090027645 -1.2049437 0.5971329 -0.22840977 0.26636428 0.9364182 0.87780774 0.8755291
-0.19255024 -1.180285 -0.1223395 -0.4678866 0.3199152 -0.8238547 0 0.2730398
3 0 1 2
3 3 4 5
3 6 7 3
3 4 8 5
3 9 10 11
3 4 12 13
3 8 13 14
3 13 15 16
3 9 17 10
3 10 17 15
3 15 18 16
3 16 18 19
3 16 19 14
3 14 19 1
3 15 20 18
3 19 21 1
3 18 20 22
3 17 9 23
3 18 22 19
3 19 22 24
3 22 23 25
3 19 24 21
3 25 24 22
3 23 26 27
3 28 29 30
3 28 31 29
3 32 7 31
3 3 5 6
3 7 32 11
3 7 11 3
3 0 5 1
3 32 9 11
3 3 11 4
3 5 8 1
3 4 11 12
3 12 11 10
3 8 4 13
3 1 8 14
3 13 12 15
3 13 16 14
3 12 10 15
3 17 23 20
3 15 17 20
3 22 20 23
3 9 26 23
3 25 23 27
3 21 24 33
3 0 30 29
3 29 31 7
3 29 6 0
3 0 6 5
3 6 29 7
