ply
format ascii 1.0
comment Created in Blender version 4.3.0
element vertex 14
property float x
property float y
property float z
property float nx
property float ny
property float nz
property float s
property float t
element face 12
property list uchar uint vertex_indices
end_header
-0.9714476 0.20819044 0.80559546 -0.3009413 -0.44753787 0.84210706 0.625 0
-0.9714476 1.5145922 0.11130816 -0.3009413 0.44753787 -0.84210706 0.375 0.25
-0.9714476 0.20819044 0.11130816 -0.30091026 -0.44754246 -0.84211564 0.375 0
-0.9714476 1.5145922 0.80559546 -0.30091026 0.44754246 0.84211564 0.625 0.25
0.9714476 1.5145922 0.11130816 0.30091026 0.44754246 -0.84211564 0.375 0.5
0.9714476 1.5145922 0.80559546 0.3009413 0.44753787 0.84210706 0.625 0.5
0.9714476 0.20819044 0.11130816 0.3009413 -0.44753787 -0.84210706 0.375 0.75
0.9714476 0.20819044 0.80559546 0.30091026 -0.44754246 0.84211564 0.625 0.75
-0.9714476 0.20819044 0.11130816 -0.30091026 -0.44754246 -0.84211564 0.375 1
-0.9714476 0.20819044 0.11130816 -0.30091026 -0.44754246 -0.84211564 0.125 0.75
-0.9714476 1.5145922 0.11130816 -0.3009413 0.44753787 -0.84210706 0.125 0.5
-0.9714476 1.5145922 0.80559546 -0.30091026 0.44754246 0.84211564 0.875 0.5
-0.9714476 0.20819044 0.80559546 -0.3009413 -0.44753787 0.84210706 0.625 1
-0.9714476 0.20819044 0.80559546 -0.3009413 -0.44753787 0.84210706 0.875 0.75
3 0 1 2
3 3 4 1
3 5 6 4
3 7 8 6
3 4 9 10
3 11 7 5
3 0 3 1
3 3 5 4
3 5 7 6
3 7 12 8
3 4 6 9
3 11 13 7
